<svg width="216" height="219" viewBox="0 0 216 219" fill="none" xmlns="http://www.w3.org/2000/svg">
<path d="M117.949 5.39246C118.696 7.83184 120.67 10.2525 122.188 12.5126C129.821 23.8808 137.529 35.2321 145.23 46.5831C162.693 72.3215 178.687 99.0752 201.206 123.375C205.09 127.565 218.926 139.271 213.923 135.552C173.365 105.401 131.761 75.7078 90.1237 46.1173C70.5876 32.2336 51.552 17.2523 27.5174 6.0579C24.891 4.83464 18.7186 1.10422 14.9092 1.00056C13.5969 0.964858 14.1394 2.63435 14.1483 2.66416C14.7913 4.79632 17.1295 8.8454 18.1699 10.5163C28.3925 26.9336 41.0518 42.8423 52.1903 59.0268C59.7575 70.0219 73.409 90.2551 80.9936 101.681C83.4758 105.421 85.9727 109.158 88.3303 112.927C89.0533 114.083 90.2612 115.216 90.2324 116.454C90.1935 118.118 86.4526 114.06 84.6891 112.794C80.7198 109.945 74.5014 105.237 70.994 102.48C56.1316 90.7971 42.3284 78.6702 29.2565 66.2135C23.8926 61.1021 17.9462 55.1569 12.6267 49.9768C10.5938 47.9972 8.56215 46.017 6.48559 44.0544C4.83021 42.4899 2.68561 37.6978 1.43143 39.3964C-0.21984 41.6327 3.30376 44.1809 4.69218 46.4833C10.519 56.1456 16.772 65.7104 23.061 75.2635C57.6792 127.848 82.7447 163.822 118.927 218" stroke="#DDEE0F" stroke-width="2" stroke-linecap="round"/>
</svg>
