<svg width="151" height="19" viewBox="0 0 151 19" fill="none" xmlns="http://www.w3.org/2000/svg">
<path d="M29.7 1H32.1C33 1 33.64 1.16667 34.02 1.5C34.4067 1.83333 34.6 2.3 34.6 2.9C34.6 3.54667 34.3033 4.03 33.71 4.35V4.37C34.4367 4.67667 34.8 5.21333 34.8 5.98C34.8 6.64 34.6067 7.14333 34.22 7.49C33.84 7.83 33.2 8 32.3 8H29.7V1ZM30.9 2.1V3.9H32.05C32.5367 3.9 32.8733 3.82333 33.06 3.67C33.2467 3.51667 33.34 3.29333 33.34 3C33.34 2.70667 33.2467 2.48333 33.06 2.33C32.8733 2.17667 32.5367 2.1 32.05 2.1H30.9ZM30.9 4.9V6.9H32.25C32.7367 6.9 33.0733 6.82 33.26 6.66C33.4467 6.49333 33.54 6.24 33.54 5.9C33.54 5.56 33.4467 5.31 33.26 5.15C33.0733 4.98333 32.7367 4.9 32.25 4.9H30.9ZM38.2512 8.1C37.3778 8.1 36.6912 7.85 36.1912 7.35C35.6978 6.84333 35.4512 6.12667 35.4512 5.2V1H36.6512V5.15C36.6512 5.77 36.7945 6.23333 37.0812 6.54C37.3678 6.84667 37.7578 7 38.2512 7C38.7512 7 39.1412 6.85 39.4212 6.55C39.7078 6.24333 39.8512 5.77667 39.8512 5.15V1H41.0512V5.2C41.0512 5.65333 40.9845 6.06 40.8512 6.42C40.7245 6.78 40.5378 7.08667 40.2912 7.34C40.0512 7.58667 39.7578 7.77667 39.4112 7.91C39.0645 8.03667 38.6778 8.1 38.2512 8.1ZM42.0055 1H44.4555C45.3621 1 46.0288 1.19667 46.4555 1.59C46.8888 1.98333 47.1055 2.51667 47.1055 3.19C47.1055 3.65 46.9988 4.05 46.7855 4.39C46.5721 4.72333 46.2488 4.97667 45.8155 5.15L47.3055 8H45.9655L44.6855 5.37C44.6121 5.37667 44.5655 5.38 44.5455 5.38C44.5255 5.38 44.4955 5.38 44.4555 5.38H43.2055V8H42.0055V1ZM44.4055 4.28C44.9188 4.28 45.2855 4.18333 45.5055 3.99C45.7321 3.79667 45.8455 3.53 45.8455 3.19C45.8455 2.87 45.7288 2.61 45.4955 2.41C45.2621 2.20333 44.8988 2.1 44.4055 2.1H43.2055V4.28H44.4055ZM49.9066 1H51.7266L53.2866 4.88H53.3066L54.8666 1H56.6066V8H55.4066V2.35H55.3866L53.8566 6.15H52.6566L51.1266 2.35H51.1066V8H49.9066V1ZM57.6023 1H62.1023V2.1H58.8023V3.85H61.5023V4.95H58.8023V6.9H62.1023V8H57.6023V1ZM62.798 1H65.148C66.2214 1 67.038 1.28 67.598 1.84C68.1647 2.39333 68.448 3.18667 68.448 4.22V4.68C68.448 5.75333 68.1647 6.57667 67.598 7.15C67.0314 7.71667 66.2147 8 65.148 8H62.798V1ZM65.098 6.9C65.8247 6.9 66.3547 6.73 66.688 6.39C67.0214 6.04333 67.188 5.47333 67.188 4.68V4.22C67.188 3.48667 67.018 2.95 66.678 2.61C66.3447 2.27 65.818 2.1 65.098 2.1H63.998V6.9H65.098ZM69.2449 1H70.4449V8H69.2449V1ZM73.3902 1H74.7902L77.2902 8H76.0102L75.4302 6.25H72.6802L72.0902 8H70.8902L73.3902 1ZM75.0702 5.15L74.0802 2.15H74.0602L73.0502 5.15H75.0702ZM79.4418 6.94L81.7018 4.77C81.9218 4.55667 82.1085 4.37 82.2618 4.21C82.4151 4.05 82.5351 3.90333 82.6218 3.77C82.7151 3.63667 82.7818 3.51333 82.8218 3.4C82.8618 3.28667 82.8818 3.17 82.8818 3.05C82.8818 2.73667 82.7851 2.48667 82.5918 2.3C82.3985 2.11333 82.1318 2.02 81.7918 2.02C81.4518 2.02 81.1851 2.12 80.9918 2.32C80.7985 2.51333 80.7018 2.79 80.7018 3.15H79.4418C79.4418 2.81 79.4951 2.5 79.6018 2.22C79.7085 1.94 79.8618 1.70333 80.0618 1.51C80.2685 1.31667 80.5151 1.16667 80.8018 1.06C81.0951 0.953333 81.4251 0.9 81.7918 0.9C82.1585 0.9 82.4851 0.953333 82.7718 1.06C83.0651 1.16 83.3118 1.30667 83.5118 1.5C83.7185 1.68667 83.8751 1.91333 83.9818 2.18C84.0885 2.44 84.1418 2.73 84.1418 3.05C84.1418 3.44333 84.0151 3.83 83.7618 4.21C83.5085 4.59 83.1151 5.02333 82.5818 5.51L81.0118 6.94H84.1418V8H79.4418V6.94ZM87.2398 8.1C86.8532 8.1 86.5032 8.04 86.1898 7.92C85.8832 7.79333 85.6232 7.59667 85.4098 7.33C85.1965 7.06333 85.0298 6.72 84.9098 6.3C84.7965 5.87333 84.7398 5.36 84.7398 4.76V4.24C84.7398 3.64667 84.7965 3.14 84.9098 2.72C85.0298 2.29333 85.1965 1.94667 85.4098 1.68C85.6298 1.40667 85.8932 1.21 86.1998 1.09C86.5065 0.963333 86.8532 0.9 87.2398 0.9C87.6265 0.9 87.9732 0.963333 88.2798 1.09C88.5932 1.21 88.8565 1.40333 89.0698 1.67C89.2898 1.93667 89.4565 2.28333 89.5698 2.71C89.6832 3.13 89.7398 3.64 89.7398 4.24V4.76C89.7398 5.35333 89.6798 5.86333 89.5598 6.29C89.4465 6.71 89.2798 7.05667 89.0598 7.33C88.8465 7.59667 88.5865 7.79333 88.2798 7.92C87.9732 8.04 87.6265 8.1 87.2398 8.1ZM87.2398 6.98C87.4332 6.98 87.6065 6.94667 87.7598 6.88C87.9132 6.81333 88.0432 6.69667 88.1498 6.53C88.2565 6.36333 88.3365 6.13667 88.3898 5.85C88.4498 5.56333 88.4798 5.2 88.4798 4.76V4.24C88.4798 3.80667 88.4498 3.44667 88.3898 3.16C88.3298 2.87333 88.2465 2.64667 88.1398 2.48C88.0332 2.30667 87.9032 2.18667 87.7498 2.12C87.5965 2.05333 87.4265 2.02 87.2398 2.02C87.0465 2.02 86.8732 2.05333 86.7198 2.12C86.5665 2.18667 86.4365 2.30333 86.3298 2.47C86.2232 2.63667 86.1398 2.86333 86.0798 3.15C86.0265 3.43667 85.9998 3.8 85.9998 4.24V4.76C85.9998 5.19333 86.0265 5.55333 86.0798 5.84C86.1398 6.12667 86.2232 6.35667 86.3298 6.53C86.4432 6.69667 86.5732 6.81333 86.7198 6.88C86.8732 6.94667 87.0465 6.98 87.2398 6.98ZM90.2434 6.94L92.5034 4.77C92.7234 4.55667 92.91 4.37 93.0634 4.21C93.2167 4.05 93.3367 3.90333 93.4234 3.77C93.5167 3.63667 93.5834 3.51333 93.6234 3.4C93.6634 3.28667 93.6834 3.17 93.6834 3.05C93.6834 2.73667 93.5867 2.48667 93.3934 2.3C93.2 2.11333 92.9334 2.02 92.5934 2.02C92.2534 2.02 91.9867 2.12 91.7934 2.32C91.6 2.51333 91.5034 2.79 91.5034 3.15H90.2434C90.2434 2.81 90.2967 2.5 90.4034 2.22C90.51 1.94 90.6634 1.70333 90.8634 1.51C91.07 1.31667 91.3167 1.16667 91.6034 1.06C91.8967 0.953333 92.2267 0.9 92.5934 0.9C92.96 0.9 93.2867 0.953333 93.5734 1.06C93.8667 1.16 94.1134 1.30667 94.3134 1.5C94.52 1.68667 94.6767 1.91333 94.7834 2.18C94.89 2.44 94.9434 2.73 94.9434 3.05C94.9434 3.44333 94.8167 3.83 94.5634 4.21C94.31 4.59 93.9167 5.02333 93.3834 5.51L91.8134 6.94H94.9434V8H90.2434V6.94ZM97.8414 8.1C97.0547 8.1 96.4447 7.89 96.0114 7.47C95.5781 7.04333 95.3547 6.43667 95.3414 5.65H96.6014C96.6147 6.11 96.7247 6.44667 96.9314 6.66C97.1381 6.87333 97.4414 6.98 97.8414 6.98C98.2547 6.98 98.5647 6.88667 98.7714 6.7C98.9781 6.50667 99.0814 6.24667 99.0814 5.92C99.0814 5.63333 98.9814 5.39667 98.7814 5.21C98.5881 5.02333 98.2981 4.93 97.9114 4.93H96.9914V3.87H97.9114C98.2314 3.87 98.4814 3.78667 98.6614 3.62C98.8414 3.45333 98.9314 3.23667 98.9314 2.97C98.9314 2.68333 98.8381 2.45333 98.6514 2.28C98.4714 2.10667 98.2014 2.02 97.8414 2.02C97.1747 2.02 96.8114 2.39667 96.7514 3.15H95.4914C95.5047 2.44333 95.7147 1.89333 96.1214 1.5C96.5347 1.1 97.1081 0.9 97.8414 0.9C98.2281 0.9 98.5681 0.95 98.8614 1.05C99.1547 1.14333 99.3981 1.28 99.5914 1.46C99.7914 1.63333 99.9414 1.84333 100.041 2.09C100.141 2.33 100.191 2.59667 100.191 2.89C100.191 3.21 100.121 3.5 99.9814 3.76C99.8414 4.02 99.6247 4.23 99.3314 4.39C99.6714 4.55667 99.9247 4.78 100.091 5.06C100.258 5.34 100.341 5.65667 100.341 6.01C100.341 6.32333 100.288 6.60667 100.181 6.86C100.075 7.11333 99.9147 7.33333 99.7014 7.52C99.4947 7.70667 99.2347 7.85 98.9214 7.95C98.6147 8.05 98.2547 8.1 97.8414 8.1ZM29.7 11H32.1C33 11 33.64 11.1667 34.02 11.5C34.4067 11.8333 34.6 12.3 34.6 12.9C34.6 13.5467 34.3033 14.03 33.71 14.35V14.37C34.4367 14.6767 34.8 15.2133 34.8 15.98C34.8 16.64 34.6067 17.1433 34.22 17.49C33.84 17.83 33.2 18 32.3 18H29.7V11ZM30.9 12.1V13.9H32.05C32.5367 13.9 32.8733 13.8233 33.06 13.67C33.2467 13.5167 33.34 13.2933 33.34 13C33.34 12.7067 33.2467 12.4833 33.06 12.33C32.8733 12.1767 32.5367 12.1 32.05 12.1H30.9ZM30.9 14.9V16.9H32.25C32.7367 16.9 33.0733 16.82 33.26 16.66C33.4467 16.4933 33.54 16.24 33.54 15.9C33.54 15.56 33.4467 15.31 33.26 15.15C33.0733 14.9833 32.7367 14.9 32.25 14.9H30.9ZM35.5012 11H37.9512C38.8578 11 39.5245 11.1967 39.9512 11.59C40.3845 11.9833 40.6012 12.5167 40.6012 13.19C40.6012 13.65 40.4945 14.05 40.2812 14.39C40.0678 14.7233 39.7445 14.9767 39.3112 15.15L40.8012 18H39.4612L38.1812 15.37C38.1078 15.3767 38.0612 15.38 38.0412 15.38C38.0212 15.38 37.9912 15.38 37.9512 15.38H36.7012V18H35.5012V11ZM37.9012 14.28C38.4145 14.28 38.7812 14.1833 39.0012 13.99C39.2278 13.7967 39.3412 13.53 39.3412 13.19C39.3412 12.87 39.2245 12.61 38.9912 12.41C38.7578 12.2033 38.3945 12.1 37.9012 12.1H36.7012V14.28H37.9012ZM43.3488 11H44.7488L47.2488 18H45.9688L45.3888 16.25H42.6388L42.0488 18H40.8488L43.3488 11ZM45.0288 15.15L44.0388 12.15H44.0188L43.0088 15.15H45.0288ZM47.6504 11H49.3504L52.1304 16.3H52.1504V11H53.3504V18H51.7504L48.8704 12.5H48.8504V18H47.6504V11ZM54.35 11H56.7C57.7733 11 58.59 11.28 59.15 11.84C59.7167 12.3933 60 13.1867 60 14.22V14.68C60 15.7533 59.7167 16.5767 59.15 17.15C58.5833 17.7167 57.7667 18 56.7 18H54.35V11ZM56.65 16.9C57.3767 16.9 57.9067 16.73 58.24 16.39C58.5733 16.0433 58.74 15.4733 58.74 14.68V14.22C58.74 13.4867 58.57 12.95 58.23 12.61C57.8967 12.27 57.37 12.1 56.65 12.1H55.55V16.9H56.65ZM62.8469 11H64.6669L66.2269 14.88H66.2469L67.8069 11H69.5469V18H68.3469V12.35H68.3269L66.7969 16.15H65.5969L64.0669 12.35H64.0469V18H62.8469V11ZM70.5426 11H75.0426V12.1H71.7426V13.85H74.4426V14.95H71.7426V16.9H75.0426V18H70.5426V11ZM75.7383 11H78.0883C79.1616 11 79.9783 11.28 80.5383 11.84C81.1049 12.3933 81.3883 13.1867 81.3883 14.22V14.68C81.3883 15.7533 81.1049 16.5767 80.5383 17.15C79.9716 17.7167 79.1549 18 78.0883 18H75.7383V11ZM78.0383 16.9C78.7649 16.9 79.2949 16.73 79.6283 16.39C79.9616 16.0433 80.1283 15.4733 80.1283 14.68V14.22C80.1283 13.4867 79.9583 12.95 79.6183 12.61C79.2849 12.27 78.7583 12.1 78.0383 12.1H76.9383V16.9H78.0383ZM82.1852 11H83.3852V18H82.1852V11ZM86.3305 11H87.7305L90.2305 18H88.9505L88.3705 16.25H85.6205L85.0305 18H83.8305L86.3305 11ZM88.0105 15.15L87.0205 12.15H87.0005L85.9905 15.15H88.0105ZM92.732 11H95.182C96.0887 11 96.7554 11.2033 97.182 11.61C97.6154 12.01 97.832 12.5767 97.832 13.31C97.832 14.0367 97.612 14.6067 97.172 15.02C96.732 15.4333 96.0687 15.64 95.182 15.64H93.932V18H92.732V11ZM93.932 12.1V14.54H95.132C95.6454 14.54 96.012 14.4367 96.232 14.23C96.4587 14.0233 96.572 13.7167 96.572 13.31C96.572 12.93 96.4554 12.6333 96.222 12.42C95.9887 12.2067 95.6254 12.1 95.132 12.1H93.932ZM98.3281 11H100.778C101.685 11 102.351 11.1967 102.778 11.59C103.211 11.9833 103.428 12.5167 103.428 13.19C103.428 13.65 103.321 14.05 103.108 14.39C102.895 14.7233 102.571 14.9767 102.138 15.15L103.628 18H102.288L101.008 15.37C100.935 15.3767 100.888 15.38 100.868 15.38C100.848 15.38 100.818 15.38 100.778 15.38H99.5281V18H98.3281V11ZM100.728 14.28C101.241 14.28 101.608 14.1833 101.828 13.99C102.055 13.7967 102.168 13.53 102.168 13.19C102.168 12.87 102.051 12.61 101.818 12.41C101.585 12.2033 101.221 12.1 100.728 12.1H99.5281V14.28H100.728ZM106.979 18.1C106.506 18.1 106.079 18.0267 105.699 17.88C105.319 17.7267 104.993 17.5067 104.719 17.22C104.453 16.9267 104.246 16.5667 104.099 16.14C103.953 15.7067 103.879 15.2133 103.879 14.66V14.24C103.879 13.7133 103.953 13.2433 104.099 12.83C104.246 12.4167 104.453 12.0667 104.719 11.78C104.993 11.4933 105.319 11.2767 105.699 11.13C106.086 10.9767 106.513 10.9 106.979 10.9C107.446 10.9 107.869 10.9767 108.249 11.13C108.636 11.2767 108.963 11.4933 109.229 11.78C109.503 12.06 109.713 12.41 109.859 12.83C110.006 13.2433 110.079 13.7133 110.079 14.24V14.66C110.079 15.2133 110.006 15.7033 109.859 16.13C109.713 16.5567 109.503 16.9167 109.229 17.21C108.963 17.5033 108.636 17.7267 108.249 17.88C107.869 18.0267 107.446 18.1 106.979 18.1ZM106.979 17C107.533 17 107.976 16.8133 108.309 16.44C108.649 16.0667 108.819 15.4733 108.819 14.66V14.24C108.819 13.4933 108.649 12.9333 108.309 12.56C107.969 12.1867 107.526 12 106.979 12C106.419 12 105.973 12.1833 105.639 12.55C105.306 12.9167 105.139 13.48 105.139 14.24V14.66C105.139 15.46 105.306 16.05 105.639 16.43C105.979 16.81 106.426 17 106.979 17ZM110.829 11H113.179C114.252 11 115.069 11.28 115.629 11.84C116.196 12.3933 116.479 13.1867 116.479 14.22V14.68C116.479 15.7533 116.196 16.5767 115.629 17.15C115.062 17.7167 114.246 18 113.179 18H110.829V11ZM113.129 16.9C113.856 16.9 114.386 16.73 114.719 16.39C115.052 16.0433 115.219 15.4733 115.219 14.68V14.22C115.219 13.4867 115.049 12.95 114.709 12.61C114.376 12.27 113.849 12.1 113.129 12.1H112.029V16.9H113.129ZM119.976 18.1C119.102 18.1 118.416 17.85 117.916 17.35C117.422 16.8433 117.176 16.1267 117.176 15.2V11H118.376V15.15C118.376 15.77 118.519 16.2333 118.806 16.54C119.092 16.8467 119.482 17 119.976 17C120.476 17 120.866 16.85 121.146 16.55C121.432 16.2433 121.576 15.7767 121.576 15.15V11H122.776V15.2C122.776 15.6533 122.709 16.06 122.576 16.42C122.449 16.78 122.262 17.0867 122.016 17.34C121.776 17.5867 121.482 17.7767 121.136 17.91C120.789 18.0367 120.402 18.1 119.976 18.1ZM126.53 18.1C126.07 18.1 125.653 18.0267 125.28 17.88C124.907 17.7267 124.587 17.5067 124.32 17.22C124.053 16.9267 123.847 16.5667 123.7 16.14C123.553 15.7067 123.48 15.2133 123.48 14.66V14.24C123.48 13.7133 123.553 13.2433 123.7 12.83C123.847 12.4167 124.053 12.0667 124.32 11.78C124.587 11.4933 124.907 11.2767 125.28 11.13C125.66 10.9767 126.077 10.9 126.53 10.9C126.943 10.9 127.313 10.96 127.64 11.08C127.973 11.1933 128.26 11.3533 128.5 11.56C128.74 11.7667 128.933 12.01 129.08 12.29C129.227 12.57 129.327 12.8733 129.38 13.2H128.08C127.98 12.8467 127.803 12.56 127.55 12.34C127.297 12.1133 126.957 12 126.53 12C125.997 12 125.563 12.1867 125.23 12.56C124.903 12.9267 124.74 13.4867 124.74 14.24V14.66C124.74 15.06 124.783 15.4067 124.87 15.7C124.963 15.9933 125.087 16.2367 125.24 16.43C125.4 16.6233 125.59 16.7667 125.81 16.86C126.03 16.9533 126.27 17 126.53 17C126.95 17 127.283 16.8833 127.53 16.65C127.783 16.4167 127.96 16.1 128.06 15.7H129.38C129.327 16.0533 129.227 16.3767 129.08 16.67C128.933 16.9633 128.74 17.2167 128.5 17.43C128.26 17.6433 127.973 17.81 127.64 17.93C127.313 18.0433 126.943 18.1 126.53 18.1ZM131.327 12.1H129.177V11H134.677V12.1H132.527V18H131.327V12.1ZM135.177 11H136.377V18H135.177V11ZM140.273 18.1C139.799 18.1 139.373 18.0267 138.993 17.88C138.613 17.7267 138.286 17.5067 138.013 17.22C137.746 16.9267 137.539 16.5667 137.393 16.14C137.246 15.7067 137.173 15.2133 137.173 14.66V14.24C137.173 13.7133 137.246 13.2433 137.393 12.83C137.539 12.4167 137.746 12.0667 138.013 11.78C138.286 11.4933 138.613 11.2767 138.993 11.13C139.379 10.9767 139.806 10.9 140.273 10.9C140.739 10.9 141.163 10.9767 141.543 11.13C141.929 11.2767 142.256 11.4933 142.523 11.78C142.796 12.06 143.006 12.41 143.153 12.83C143.299 13.2433 143.373 13.7133 143.373 14.24V14.66C143.373 15.2133 143.299 15.7033 143.153 16.13C143.006 16.5567 142.796 16.9167 142.523 17.21C142.256 17.5033 141.929 17.7267 141.543 17.88C141.163 18.0267 140.739 18.1 140.273 18.1ZM140.273 17C140.826 17 141.269 16.8133 141.603 16.44C141.943 16.0667 142.113 15.4733 142.113 14.66V14.24C142.113 13.4933 141.943 12.9333 141.603 12.56C141.263 12.1867 140.819 12 140.273 12C139.713 12 139.266 12.1833 138.933 12.55C138.599 12.9167 138.433 13.48 138.433 14.24V14.66C138.433 15.46 138.599 16.05 138.933 16.43C139.273 16.81 139.719 17 140.273 17ZM144.122 11H145.822L148.602 16.3H148.622V11H149.822V18H148.222L145.342 12.5H145.322V18H144.122V11Z" fill="white"/>
<path d="M10.2 18.144C9 18.144 7.88 17.92 6.84 17.472C5.8 17.024 4.888 16.416 4.104 15.648C3.336 14.88 2.728 13.976 2.28 12.936C1.832 11.896 1.608 10.784 1.608 9.6C1.608 8.432 1.832 7.328 2.28 6.288C2.728 5.248 3.336 4.344 4.104 3.576C4.888 2.792 5.8 2.176 6.84 1.728C7.896 1.28 9.016 1.056 10.2 1.056C11.4 1.056 12.52 1.28 13.56 1.728C14.616 2.176 15.528 2.784 16.296 3.552C17.064 4.32 17.672 5.224 18.12 6.264C18.568 7.304 18.792 8.416 18.792 9.6C18.792 10.784 18.568 11.896 18.12 12.936C17.672 13.96 17.056 14.864 16.272 15.648C15.504 16.416 14.6 17.024 13.56 17.472C12.52 17.92 11.4 18.144 10.2 18.144ZM10.2 17.16C11.256 17.16 12.24 16.968 13.152 16.584C14.08 16.184 14.888 15.648 15.576 14.976C16.264 14.288 16.8 13.488 17.184 12.576C17.584 11.648 17.784 10.656 17.784 9.6C17.784 8.544 17.584 7.56 17.184 6.648C16.8 5.72 16.264 4.92 15.576 4.248C14.888 3.56 14.08 3.024 13.152 2.64C12.24 2.24 11.256 2.04 10.2 2.04C9.144 2.04 8.16 2.24 7.248 2.64C6.336 3.024 5.536 3.56 4.848 4.248C4.16 4.92 3.616 5.72 3.216 6.648C2.832 7.56 2.64 8.544 2.64 9.6C2.64 10.656 2.832 11.648 3.216 12.576C3.616 13.488 4.16 14.288 4.848 14.976C5.536 15.648 6.336 16.184 7.248 16.584C8.16 16.968 9.144 17.16 10.2 17.16ZM10.2 14.544C9.032 14.544 8.08 14.16 7.344 13.392C6.608 12.608 6.24 11.504 6.24 10.08V9.12C6.24 8.416 6.336 7.792 6.528 7.248C6.736 6.688 7.008 6.216 7.344 5.832C7.696 5.448 8.112 5.16 8.592 4.968C9.088 4.76 9.624 4.656 10.2 4.656C10.728 4.656 11.2 4.736 11.616 4.896C12.048 5.04 12.416 5.232 12.72 5.472C13.04 5.712 13.296 5.992 13.488 6.312C13.68 6.632 13.816 6.96 13.896 7.296H12.864C12.704 6.88 12.4 6.496 11.952 6.144C11.52 5.776 10.936 5.592 10.2 5.592C9.336 5.592 8.624 5.896 8.064 6.504C7.52 7.096 7.248 7.968 7.248 9.12V10.08C7.248 11.216 7.528 12.088 8.088 12.696C8.648 13.304 9.352 13.608 10.2 13.608C10.968 13.608 11.568 13.424 12 13.056C12.448 12.672 12.752 12.2 12.912 11.64H13.896C13.816 12.04 13.672 12.416 13.464 12.768C13.272 13.12 13.016 13.432 12.696 13.704C12.392 13.96 12.024 14.168 11.592 14.328C11.176 14.472 10.712 14.544 10.2 14.544Z" fill="white"/>
</svg>
