<svg width="162" height="165" viewBox="0 0 162 165" fill="none" xmlns="http://www.w3.org/2000/svg">
<path d="M1.24367 154.831C1.24367 190.736 1.24367 83.0207 1.24367 47.1155C1.24367 42.9411 1.24367 38.7667 1.24367 34.5924C1.24367 33.7181 0.184185 29.9496 2.4836 32.0962C33.9866 61.5057 68.8559 89.4916 103.506 117.346C116.362 127.681 129.361 137.943 141.814 148.485C145.829 151.884 153.055 158.193 157.084 161.854C157.813 162.516 160.004 164.494 159.173 163.885C157.345 162.545 155.74 161.084 154.082 159.654C121.165 131.274 92.7813 101.076 61.1523 72.1617C57.945 69.2296 48.8818 60.3376 50.8412 63.7001C58.8475 77.4395 74.0334 90.6798 85.429 103.258C99.6131 118.914 114.039 134.523 127.195 150.558C129.399 153.243 135.534 158.823 130.915 159.358C126.658 159.851 118.925 155.728 116.362 154.493C99.2165 146.232 84.0512 136.018 70.1582 125.554C50.9869 111.114 31.0631 94.5642 19.8428 76.7309C17.0814 72.3421 14.7676 65.7077 23.4321 72.9232C42.801 89.0531 54.081 110.85 62.9796 130.208C65.1479 134.925 67.1215 139.678 68.5919 144.508C68.9161 145.573 71.1042 149.85 70.3539 151.066C68.7703 153.632 67.691 145.793 66.9604 143.07C64.2718 133.047 62.5735 122.833 62.8491 112.65C63.5136 88.0937 76.5562 64.5554 95.7401 43.5616C112.442 25.2839 133.964 12.3928 161 1.00001" stroke="#DDEE0F" stroke-width="2" stroke-linecap="round"/>
</svg>
