<svg width="149" height="36" viewBox="0 0 149 36" fill="none" xmlns="http://www.w3.org/2000/svg">
<path d="M3.5 15.1C3.04 15.1 2.62333 15.0267 2.25 14.88C1.87667 14.7267 1.55667 14.5067 1.29 14.22C1.02333 13.9267 0.816667 13.5667 0.67 13.14C0.523333 12.7067 0.45 12.2133 0.45 11.66V11.24C0.45 10.7133 0.523333 10.2433 0.67 9.83C0.816667 9.41667 1.02333 9.06667 1.29 8.78C1.55667 8.49333 1.87667 8.27667 2.25 8.13C2.63 7.97667 3.04667 7.9 3.5 7.9C3.91333 7.9 4.28333 7.96 4.61 8.08C4.94333 8.19333 5.23 8.35333 5.47 8.56C5.71 8.76667 5.90333 9.01 6.05 9.29C6.19667 9.57 6.29667 9.87333 6.35 10.2H5.05C4.95 9.84667 4.77333 9.56 4.52 9.34C4.26667 9.11333 3.92667 9 3.5 9C2.96667 9 2.53333 9.18667 2.2 9.56C1.87333 9.92667 1.71 10.4867 1.71 11.24V11.66C1.71 12.06 1.75333 12.4067 1.84 12.7C1.93333 12.9933 2.05667 13.2367 2.21 13.43C2.37 13.6233 2.56 13.7667 2.78 13.86C3 13.9533 3.24 14 3.5 14C3.92 14 4.25333 13.8833 4.5 13.65C4.75333 13.4167 4.93 13.1 5.03 12.7H6.35C6.29667 13.0533 6.19667 13.3767 6.05 13.67C5.90333 13.9633 5.71 14.2167 5.47 14.43C5.23 14.6433 4.94333 14.81 4.61 14.93C4.28333 15.0433 3.91333 15.1 3.5 15.1ZM6.99922 8H9.44922C10.3559 8 11.0226 8.19667 11.4492 8.59C11.8826 8.98333 12.0992 9.51667 12.0992 10.19C12.0992 10.65 11.9926 11.05 11.7792 11.39C11.5659 11.7233 11.2426 11.9767 10.8092 12.15L12.2992 15H10.9592L9.67922 12.37C9.60589 12.3767 9.55922 12.38 9.53922 12.38C9.51922 12.38 9.48922 12.38 9.44922 12.38H8.19922V15H6.99922V8ZM9.39922 11.28C9.91255 11.28 10.2792 11.1833 10.4992 10.99C10.7259 10.7967 10.8392 10.53 10.8392 10.19C10.8392 9.87 10.7226 9.61 10.4892 9.41C10.2559 9.20333 9.89255 9.1 9.39922 9.1H8.19922V11.28H9.39922ZM14.8469 8H16.2469L18.7469 15H17.4669L16.8869 13.25H14.1369L13.5469 15H12.3469L14.8469 8ZM16.5269 12.15L15.5369 9.15H15.5169L14.5069 12.15H16.5269ZM19.1484 8H23.6484V9.1H20.3484V10.95H23.0484V12.05H20.3484V15H19.1484V8ZM26.0516 9.1H23.9016V8H29.4016V9.1H27.2516V15H26.0516V9.1ZM29.8523 8H34.3523V9.1H31.0523V10.85H33.7523V11.95H31.0523V13.9H34.3523V15H29.8523V8ZM35.048 8H37.398C38.4714 8 39.288 8.28 39.848 8.84C40.4147 9.39333 40.698 10.1867 40.698 11.22V11.68C40.698 12.7533 40.4147 13.5767 39.848 14.15C39.2814 14.7167 38.4647 15 37.398 15H35.048V8ZM37.348 13.9C38.0747 13.9 38.6047 13.73 38.938 13.39C39.2714 13.0433 39.438 12.4733 39.438 11.68V11.22C39.438 10.4867 39.268 9.95 38.928 9.61C38.5947 9.27 38.068 9.1 37.348 9.1H36.248V13.9H37.348ZM43.5949 8H44.7949V15H43.5949V8ZM45.8402 8H47.5402L50.3202 13.3H50.3402V8H51.5402V15H49.9402L47.0602 9.5H47.0402V15H45.8402V8Z" fill="white"/>
<path d="M71.12 23.8H74.032L76.528 30.008H76.56L79.056 23.8H81.84V35H79.92V25.96H79.888L77.44 32.04H75.52L73.072 25.96H73.04V35H71.12V23.8ZM83.5131 23.8H85.4331V35H83.5131V23.8ZM87.1056 23.8H89.0256V29.192L93.2496 23.8H95.5856L91.6816 28.76L95.9056 35H93.5056L90.3536 30.216L89.0256 31.864V35H87.1056V23.8ZM100.136 35.16C98.717 35.16 97.645 34.824 96.9196 34.152C96.205 33.48 95.8103 32.536 95.7356 31.32H97.7836C97.837 32.024 98.0503 32.5467 98.4236 32.888C98.797 33.2293 99.3676 33.4 100.136 33.4C100.872 33.4 101.4 33.2667 101.72 33C102.04 32.7333 102.2 32.376 102.2 31.928C102.2 31.512 102.045 31.1973 101.736 30.984C101.426 30.7707 101.037 30.5947 100.568 30.456C100.098 30.3067 99.5916 30.168 99.0476 30.04C98.5036 29.9013 97.997 29.7093 97.5276 29.464C97.0583 29.2187 96.669 28.888 96.3596 28.472C96.0503 28.056 95.8956 27.4907 95.8956 26.776C95.8956 26.328 95.981 25.9173 96.1516 25.544C96.3223 25.16 96.573 24.8293 96.9036 24.552C97.245 24.264 97.661 24.04 98.1516 23.88C98.653 23.72 99.2343 23.64 99.8956 23.64C101.272 23.64 102.301 23.96 102.984 24.6C103.666 25.24 104.05 26.1467 104.136 27.32H102.088C102.034 26.68 101.837 26.2 101.496 25.88C101.154 25.56 100.621 25.4 99.8956 25.4C99.1916 25.4 98.685 25.5333 98.3756 25.8C98.0663 26.056 97.9116 26.3867 97.9116 26.792C97.9116 27.2293 98.0663 27.56 98.3756 27.784C98.685 27.9973 99.0743 28.1733 99.5436 28.312C100.013 28.4507 100.52 28.584 101.064 28.712C101.608 28.8293 102.114 29.0053 102.584 29.24C103.053 29.4747 103.442 29.8053 103.752 30.232C104.061 30.648 104.216 31.2187 104.216 31.944C104.216 32.4133 104.13 32.8453 103.96 33.24C103.8 33.6347 103.549 33.976 103.208 34.264C102.866 34.5413 102.44 34.76 101.928 34.92C101.416 35.08 100.818 35.16 100.136 35.16ZM105.021 29.992H110.621V31.688H105.021V29.992ZM115.824 35.16C114.406 35.16 113.334 34.824 112.608 34.152C111.894 33.48 111.499 32.536 111.424 31.32H113.472C113.526 32.024 113.739 32.5467 114.112 32.888C114.486 33.2293 115.056 33.4 115.824 33.4C116.56 33.4 117.088 33.2667 117.408 33C117.728 32.7333 117.888 32.376 117.888 31.928C117.888 31.512 117.734 31.1973 117.424 30.984C117.115 30.7707 116.726 30.5947 116.256 30.456C115.787 30.3067 115.28 30.168 114.736 30.04C114.192 29.9013 113.686 29.7093 113.216 29.464C112.747 29.2187 112.358 28.888 112.048 28.472C111.739 28.056 111.584 27.4907 111.584 26.776C111.584 26.328 111.67 25.9173 111.84 25.544C112.011 25.16 112.262 24.8293 112.592 24.552C112.934 24.264 113.35 24.04 113.84 23.88C114.342 23.72 114.923 23.64 115.584 23.64C116.96 23.64 117.99 23.96 118.672 24.6C119.355 25.24 119.739 26.1467 119.824 27.32H117.776C117.723 26.68 117.526 26.2 117.184 25.88C116.843 25.56 116.31 25.4 115.584 25.4C114.88 25.4 114.374 25.5333 114.064 25.8C113.755 26.056 113.6 26.3867 113.6 26.792C113.6 27.2293 113.755 27.56 114.064 27.784C114.374 27.9973 114.763 28.1733 115.232 28.312C115.702 28.4507 116.208 28.584 116.752 28.712C117.296 28.8293 117.803 29.0053 118.272 29.24C118.742 29.4747 119.131 29.8053 119.44 30.232C119.75 30.648 119.904 31.2187 119.904 31.944C119.904 32.4133 119.819 32.8453 119.648 33.24C119.488 33.6347 119.238 33.976 118.896 34.264C118.555 34.5413 118.128 34.76 117.616 34.92C117.104 35.08 116.507 35.16 115.824 35.16ZM125.59 35.16C124.833 35.16 124.15 35.0427 123.542 34.808C122.934 34.5627 122.411 34.2107 121.974 33.752C121.547 33.2827 121.217 32.7067 120.982 32.024C120.747 31.3307 120.63 30.5413 120.63 29.656V28.984C120.63 28.1413 120.747 27.3893 120.982 26.728C121.217 26.0667 121.547 25.5067 121.974 25.048C122.411 24.5893 122.934 24.2427 123.542 24.008C124.161 23.7627 124.843 23.64 125.59 23.64C126.337 23.64 127.014 23.7627 127.622 24.008C128.241 24.2427 128.763 24.5893 129.19 25.048C129.627 25.496 129.963 26.056 130.198 26.728C130.433 27.3893 130.55 28.1413 130.55 28.984V29.656C130.55 30.5413 130.433 31.3253 130.198 32.008C129.963 32.6907 129.627 33.2667 129.19 33.736C128.763 34.2053 128.241 34.5627 127.622 34.808C127.014 35.0427 126.337 35.16 125.59 35.16ZM125.59 33.4C126.475 33.4 127.185 33.1013 127.718 32.504C128.262 31.9067 128.534 30.9573 128.534 29.656V28.984C128.534 27.7893 128.262 26.8933 127.718 26.296C127.174 25.6987 126.465 25.4 125.59 25.4C124.694 25.4 123.979 25.6933 123.446 26.28C122.913 26.8667 122.646 27.768 122.646 28.984V29.656C122.646 30.936 122.913 31.88 123.446 32.488C123.99 33.096 124.705 33.4 125.59 33.4ZM131.749 23.8H138.949V25.56H133.669V28.52H137.989V30.28H133.669V35H131.749V23.8ZM142.794 25.56H139.354V23.8H148.154V25.56H144.714V35H142.794V25.56Z" fill="white"/>
<path d="M65.7794 8.79545C64.5149 11.0949 62.778 13.1306 61.1383 15.1695C59.1388 17.6558 57.128 20.8982 54.5733 22.8814C50.1038 26.3509 62.4583 14.7655 66.7115 11.0382C69.8784 8.26298 73.2702 5.39234 75.9739 2.14595C76.296 1.75926 77.4549 0.838309 76.9854 1.02459C75.8436 1.47762 74.7271 3.09051 73.9112 3.91653C70.1321 7.74227 66.965 12.0874 64.272 16.7237C62.575 19.6452 61.1105 22.7003 59.5912 25.7143C58.7341 27.4147 60.5818 24.1834 60.6623 24.0618C63.8538 19.2361 67.924 15.104 71.7692 10.8021C74.2907 7.98108 76.3214 4.68725 78.9093 1.94922C78.9188 1.93916 80.1705 0.722158 79.9803 1.24099C79.7727 1.80723 79.0233 2.47233 78.6713 2.89353C76.4066 5.60375 74.143 8.30692 71.8088 10.9595C66.1118 17.4335 60.5719 24.0707 54.5138 30.2194C52.7892 31.9698 51.1518 33.7804 49 35" stroke="#DDEE0F" stroke-width="2" stroke-linecap="round"/>
</svg>
