<svg width="70" height="45" viewBox="0 0 70 45" fill="none" xmlns="http://www.w3.org/2000/svg">
<path d="M1.4628 43.4752C2.31907 43.4752 2.98981 42.8307 2.98981 41.4376C2.98981 40.0515 2.44037 39.5178 1.73395 39.5178C1.39858 39.5178 1.05607 39.5663 0.606524 40.0099V38L0 38.0347V43.4129L0.421002 43.1772C0.635069 43.3297 0.884819 43.4752 1.4628 43.4752ZM1.38431 42.9762C1.03466 42.9762 0.770642 42.8099 0.606524 42.6574V40.6198C0.906218 40.2455 1.22732 40.0792 1.54842 40.0792C2.09072 40.0792 2.37615 40.5644 2.37615 41.4584C2.37615 42.6089 1.91948 42.9762 1.38431 42.9762ZM4.41693 43.399V41.001C4.65954 40.4812 4.98064 40.1485 5.35882 40.1485C5.63711 40.1485 5.78695 40.2871 5.78695 40.2871L5.90113 39.6218C5.82977 39.5802 5.72273 39.5455 5.53007 39.5455C5.25892 39.5455 4.83079 39.6079 4.42406 40.3149L4.33844 39.5871H3.80327V43.399H4.41693ZM7.14271 43.4683C7.50663 43.4683 7.84914 43.3782 8.22019 42.803C8.24873 43.1287 8.29868 43.3089 8.32009 43.4198L8.86952 43.3436C8.84098 43.1842 8.76249 42.7475 8.76249 42.1515V41.2713C8.76249 40.0723 8.57697 39.5109 7.56372 39.5109C6.82875 39.5109 6.40061 39.7257 6.40061 39.7257L6.49338 40.3634C6.72885 40.1693 7.03569 40.0446 7.44955 40.0446C8.06752 40.0446 8.11726 40.5002 8.14557 41.0101L8.14883 41.0703H7.65647C6.72885 41.0703 6.14373 41.5347 6.14373 42.3733C6.14373 43.004 6.44343 43.4683 7.14271 43.4683ZM7.22834 42.9901C6.90011 42.9901 6.70745 42.7545 6.70745 42.3455C6.70745 41.8396 7.08563 41.5139 7.72069 41.5139L7.74686 41.5139L7.79943 41.5145C7.97443 41.5172 8.14169 41.5277 8.14169 41.5277V42.1931C7.90622 42.7337 7.55658 42.9901 7.22834 42.9901ZM10.3609 43.399V40.7238C10.6463 40.3287 10.9745 40.0723 11.3884 40.0723C11.945 40.0723 12.0092 40.4188 12.0092 41.6109V43.399H12.6086V41.3683C12.6086 39.996 12.3945 39.5178 11.5668 39.5178C11.1315 39.5178 10.6677 39.6842 10.3323 40.1208L10.211 39.5871H9.76147V43.399H10.3609ZM14.6993 43.4752C15.1346 43.4752 15.4557 43.3782 15.8481 42.8376H15.8695C15.8838 43.1149 15.9052 43.2327 15.948 43.4198L16.5117 43.3366C16.4404 43.004 16.3976 42.5535 16.3976 41.9851V38L15.791 38.0347V39.6911C15.4842 39.5386 15.1988 39.5248 14.9633 39.5248C14.1641 39.5248 13.4006 40.1069 13.4006 41.5554C13.4006 42.997 14.0428 43.4752 14.6993 43.4752ZM14.8277 42.9554C14.4139 42.9554 14.0214 42.5743 14.0214 41.5C14.0214 40.5644 14.4067 40.0723 15.0347 40.0723C15.3058 40.0723 15.5127 40.1347 15.791 40.2733V42.2069C15.5556 42.6297 15.2273 42.9554 14.8277 42.9554ZM19.3445 43.399V40.6891C19.5443 40.405 19.8797 40.0584 20.3079 40.0584C20.7003 40.0584 20.8502 40.4396 20.8502 41.299V43.399H21.4567V40.6337C21.685 40.3287 21.9704 40.0584 22.3629 40.0584C22.8751 40.0584 22.9665 40.494 22.9694 41.5695L22.9694 43.399H23.5759V41.299C23.5759 40.0723 23.3761 39.5178 22.4699 39.5178C22.1274 39.5178 21.735 39.6634 21.3639 40.1139C21.1998 39.6911 20.8716 39.5178 20.4577 39.5178C20.0296 39.5178 19.6228 39.7119 19.3017 40.1208L19.1876 39.5871H18.738V43.399H19.3445ZM25.8807 43.4683C26.2161 43.4683 26.6086 43.4198 26.9083 43.2812V42.7545C26.7584 42.8446 26.4801 42.9693 25.9878 42.9693C25.3527 42.9693 24.9959 42.5327 24.9531 41.7079H27.0367C27.051 41.5762 27.0724 41.3267 27.0724 41.0495C27.0724 40.2663 26.8298 39.5178 25.8807 39.5178C24.8389 39.5178 24.368 40.3426 24.368 41.5069C24.368 42.8584 24.8818 43.4683 25.8807 43.4683ZM26.4944 41.2297H24.9602C25.0316 40.3842 25.3313 40.003 25.8165 40.003C26.3802 40.003 26.4944 40.5228 26.4944 41.2297ZM28.9348 43.4752C29.37 43.4752 29.6911 43.3782 30.0836 42.8376H30.105C30.1193 43.1149 30.1407 43.2327 30.1835 43.4198L30.7472 43.3366C30.6758 43.004 30.633 42.5535 30.633 41.9851V38L30.0265 38.0347V39.6911C29.7197 39.5386 29.4342 39.5248 29.1988 39.5248C28.3996 39.5248 27.6361 40.1069 27.6361 41.5554C27.6361 42.997 28.2783 43.4752 28.9348 43.4752ZM29.0632 42.9554C28.6493 42.9554 28.2569 42.5743 28.2569 41.5C28.2569 40.5644 28.6422 40.0723 29.2701 40.0723C29.5413 40.0723 29.7482 40.1347 30.0265 40.2733V42.2069C29.791 42.6297 29.4628 42.9554 29.0632 42.9554ZM32.0673 38.9772C32.3313 38.9772 32.5168 38.7832 32.5168 38.5406C32.5168 38.298 32.3313 38.097 32.0673 38.097C31.8175 38.097 31.6391 38.298 31.6391 38.5406C31.6391 38.7832 31.8175 38.9772 32.0673 38.9772ZM32.3812 43.399V39.5871H31.7747V43.399H32.3812ZM34.265 43.4683C34.629 43.4683 34.9715 43.3782 35.3425 42.803C35.371 43.1287 35.421 43.3089 35.4424 43.4198L35.9918 43.3436C35.9633 43.1842 35.8848 42.7475 35.8848 42.1515V41.2713C35.8848 40.0723 35.6993 39.5109 34.686 39.5109C33.9845 39.5109 33.5625 39.7067 33.5256 39.7244L33.5229 39.7257L33.6157 40.3634C33.8512 40.1693 34.158 40.0446 34.5719 40.0446C35.2141 40.0446 35.2426 40.5366 35.2712 41.0703H34.7788C33.8512 41.0703 33.2661 41.5347 33.2661 42.3733C33.2661 43.004 33.5658 43.4683 34.265 43.4683ZM34.3507 42.9901C34.0224 42.9901 33.8298 42.7545 33.8298 42.3455C33.8298 41.8396 34.208 41.5139 34.843 41.5139L34.8692 41.5139L34.9217 41.5145C35.0967 41.5172 35.264 41.5277 35.264 41.5277V42.1931C35.0285 42.7337 34.6789 42.9901 34.3507 42.9901ZM38.1967 45L38.8033 44.9653V43.3297C39.103 43.4267 39.3527 43.4683 39.6238 43.4683C40.4302 43.4683 41.1937 42.8861 41.1937 41.4307C41.1937 39.996 40.6157 39.5178 39.895 39.5178C39.4954 39.5178 39.1244 39.6703 38.7747 40.1069L38.6534 39.5871H38.1967V45ZM39.5596 42.9554C39.2885 42.9554 39.0316 42.8792 38.8033 42.7267V40.7723C39.0387 40.3703 39.3884 40.0723 39.7666 40.0723C40.2232 40.0723 40.5729 40.4188 40.5729 41.5139C40.5729 42.4634 40.1876 42.9554 39.5596 42.9554ZM42.6208 43.399V41.001C42.8634 40.4812 43.1845 40.1485 43.5627 40.1485C43.841 40.1485 43.9908 40.2871 43.9908 40.2871L44.105 39.6218C44.0336 39.5802 43.9266 39.5455 43.7339 39.5455C43.4628 39.5455 43.0347 39.6079 42.6279 40.3149L42.5423 39.5871H42.0071V43.399H42.6208ZM45.9032 43.4752C46.8665 43.4752 47.4088 42.7822 47.4088 41.4931C47.4088 40.197 46.9521 39.5178 45.946 39.5178C45.0612 39.5178 44.3904 40.1416 44.3904 41.4931C44.3904 42.7406 44.9185 43.4752 45.9032 43.4752ZM45.9032 42.997C45.3109 42.997 45.0112 42.4287 45.0112 41.4861C45.0112 40.6267 45.3109 40.003 45.9246 40.003C46.581 40.003 46.788 40.5644 46.788 41.4931C46.788 42.401 46.5596 42.997 45.9032 42.997ZM49.2926 43.4752C49.7278 43.4752 50.0489 43.3782 50.4414 42.8376H50.4628C50.4771 43.1149 50.4985 43.2327 50.5413 43.4198L51.105 43.3366C51.0336 43.004 50.9908 42.5535 50.9908 41.9851V38L50.3843 38.0347V39.6911C50.0775 39.5386 49.7921 39.5248 49.5566 39.5248C48.7574 39.5248 47.9939 40.1069 47.9939 41.5554C47.9939 42.997 48.6361 43.4752 49.2926 43.4752ZM49.421 42.9554C49.0071 42.9554 48.6147 42.5743 48.6147 41.5C48.6147 40.5644 49 40.0723 49.6279 40.0723C49.8991 40.0723 50.106 40.1347 50.3843 40.2733V42.2069C50.1488 42.6297 49.8206 42.9554 49.421 42.9554ZM53.1101 43.4752C53.5311 43.4752 53.9307 43.2812 54.316 42.8446C54.3231 43.0941 54.366 43.3366 54.3945 43.4267L54.9653 43.3366C54.8797 42.8723 54.844 42.4495 54.844 42.0059V39.5871H54.2375V42.2832C53.9949 42.6228 53.6453 42.9346 53.2314 42.9346C52.6706 42.9346 52.6056 42.4463 52.6035 41.4893L52.6035 39.5871H51.9969V41.4584C51.9969 42.9832 52.2467 43.4752 53.1101 43.4752ZM57.2559 43.4683C57.5484 43.4683 57.8838 43.4059 58.1763 43.2604L58.1621 42.7475C58.0051 42.8446 57.7268 42.9762 57.3772 42.9762C56.5566 42.9762 56.3068 42.2347 56.3068 41.5208C56.3068 40.6198 56.6993 40.0307 57.3344 40.0307C57.6055 40.0307 57.8338 40.0931 58.0408 40.2941L58.1264 39.6911C57.9052 39.5733 57.6483 39.5178 57.2987 39.5178C56.3568 39.5178 55.686 40.2941 55.686 41.5069C55.686 42.9346 56.3853 43.4683 57.2559 43.4683ZM60.0245 43.4406C60.3456 43.4406 60.6025 43.4059 60.9878 43.2465L61.0235 42.6436C60.8593 42.7683 60.5953 42.9139 60.2385 42.9139C59.8104 42.9139 59.632 42.699 59.632 41.9228V40.1485L61.002 40.1554V39.6426H59.632V38.4852H59.5178C59.5178 38.4852 59.5123 38.4985 59.5013 38.523L59.4906 38.5468C59.3915 38.7626 59.0234 39.5 58.3904 40.0446V40.1485H59.0183V42.103C59.0183 42.9762 59.2681 43.4406 60.0245 43.4406ZM62.0795 38.9772C62.3435 38.9772 62.5291 38.7832 62.5291 38.5406C62.5291 38.298 62.3435 38.097 62.0795 38.097C61.8298 38.097 61.6514 38.298 61.6514 38.5406C61.6514 38.7832 61.8298 38.9772 62.0795 38.9772ZM62.3935 43.399V39.5871H61.787V43.399H62.3935ZM64.8338 43.4752C65.7971 43.4752 66.3395 42.7822 66.3395 41.4931C66.3395 40.197 65.8828 39.5178 64.8767 39.5178C63.9918 39.5178 63.3211 40.1416 63.3211 41.4931C63.3211 42.7406 63.8491 43.4752 64.8338 43.4752ZM64.8338 42.997C64.2416 42.997 63.9419 42.4287 63.9419 41.4861C63.9419 40.6267 64.2416 40.003 64.8553 40.003C65.5117 40.003 65.7187 40.5644 65.7187 41.4931C65.7187 42.401 65.4903 42.997 64.8338 42.997ZM67.7523 43.399V40.7238C68.0377 40.3287 68.366 40.0723 68.7798 40.0723C69.3278 40.0723 69.3985 40.4082 69.4006 41.5565L69.4006 43.399H70V41.3683C70 39.996 69.7859 39.5178 68.9582 39.5178C68.5229 39.5178 68.0591 39.6842 67.7237 40.1208L67.6025 39.5871H67.1529V43.399H67.7523Z" fill="white"/>
<path d="M5.61454 14.1319C10.0779 14.1319 11.2897 11.8891 11.2897 9.66608C11.2897 7.97898 10.2395 7.00642 9.10848 6.56976C10.0779 5.95446 10.7646 4.88266 10.7646 3.67192C10.7646 1.36953 9.33064 0 5.35199 0H5.28435L5.15048 0.000163108C5.10612 0.000237463 5.06202 0.000337222 5.01809 0.000465338L4.88676 0.000935473C3.77372 0.0056566 2.72718 0.029426 0.525102 0.0992369V13.993C2.40335 14.0922 3.89787 14.1319 5.61454 14.1319ZM4.88749 5.69644H3.67571V2.69935C3.97865 2.63981 4.7865 2.61996 5.3116 2.61996C7.00808 2.61996 7.47259 3.23526 7.47259 3.98949C7.47259 5.10099 6.84652 5.69644 4.88749 5.69644ZM5.3318 11.512C4.76631 11.512 4.221 11.4723 3.67571 11.4326V8.27671H5.37219C7.33122 8.27671 7.9371 8.8523 7.9371 9.74547C7.9371 10.8173 7.29083 11.512 5.3318 11.512ZM21.1454 14.251C25.0837 14.251 26.9417 12.1273 26.9417 7.52247V0.0992369H23.7911V7.8599C23.7911 10.599 22.7005 11.5715 21.206 11.5715C19.5903 11.5715 18.6815 10.46 18.6815 7.76065V0.0992369H15.5309V7.52247C15.5309 12.1273 17.3687 14.251 21.1454 14.251ZM35.0606 13.993V9.32866C35.1818 9.34851 35.303 9.34851 35.4645 9.34851C35.8482 9.34851 36.2118 9.32866 36.5147 9.30881L39.4028 13.993H43.1997L39.6249 8.49504C40.8973 7.91944 42.1898 6.6293 42.1898 4.446C42.1898 1.27028 40.15 0.0198464 36.5551 0.0198464C34.6971 0.0198464 33.2833 0.0396954 31.91 0.119088V13.993H35.0606ZM36.1916 6.6293C35.7877 6.6293 35.4645 6.6293 35.0606 6.60946V2.65966C35.3943 2.64326 35.659 2.64041 36.1168 2.63992L36.349 2.63981C36.3767 2.63981 36.405 2.63981 36.4339 2.63981C38.1304 2.63981 38.9383 3.21541 38.9383 4.46585C38.9383 5.97431 37.9284 6.6293 36.1916 6.6293ZM9.16907 34L12.6024 24.3538H12.6832V27.728L13.1477 33.8412H16.3589L14.8644 19.9475H11.6128L8.21985 29.3555L4.90768 19.9475H1.65609L0 33.8412H3.2112L3.69591 27.728V24.3339H3.81708L7.18985 34H9.16907ZM30.5165 33.8412V31.0823H24.0941V28.1646H29.3451V25.4256H24.0941V22.7064H30.2741V19.9475H20.9232V33.8412H30.5165ZM38.8373 33.8412C43.6642 33.8412 45.8656 31.1617 45.8656 26.7356C45.8656 22.3491 43.7248 19.9475 38.9585 19.9475H34.3537V33.8412H38.8373ZM38.8373 31.1419H37.5043V22.7858H38.6959C41.3012 22.7858 42.6342 24.0163 42.6342 26.8943C42.6342 29.6731 41.3012 31.1419 38.8373 31.1419ZM53.3987 33.8412V19.9475H50.2279V33.8412H53.3987ZM59.8615 33.8412L60.8713 31.1815H65.5366L66.5061 33.8412H70L64.4258 19.9475H62.3456L56.7513 33.8412H59.8615ZM64.7086 28.5616H61.76L63.2545 24.4133H63.3353L64.7086 28.5616Z" fill="white"/>
</svg>
