<svg width="305" height="162" viewBox="0 0 305 162" fill="none" xmlns="http://www.w3.org/2000/svg">
<path d="M65.7207 51.1358C62.396 47.9606 70.1993 40.78 72.4399 38.5137C82.1293 28.7136 95.165 18.7829 111.941 11.8908C138.243 1.08489 177.181 -1.47254 208.861 3.29932C242.073 8.30199 269.526 25.2109 288.474 39.4683C297.092 45.9532 304 58.8462 304 74.8461C304 90.8461 299.242 97.0983 286.438 110.958C269.373 129.429 235.705 139.598 201.531 148.188C174.062 155.092 145.234 158.903 114.995 160.491C78.6035 162.403 32.0546 159.572 12.3739 140.763C-15.457 114.164 13.2474 75.6089 40.0654 52.1964C55.2341 38.9539 75.5312 24.6673 101.964 16.982C121.085 11.4226 136.328 15.3448 155.514 17.7245" stroke="#DDEE0F" stroke-width="2" stroke-linecap="round"/>
</svg>
