<svg width="151" height="33" viewBox="0 0 151 33" fill="none" xmlns="http://www.w3.org/2000/svg">
<g filter="url(#filter0_d_229_368)">
<path d="M20.5153 2.40502e-07C20.5193 3.17997e-06 20.5244 7.58916e-06 20.5304 1.4203e-05L20.6107 0.000153093C21.7148 0.00263988 30.989 0.0440863 33.4198 0.73486C34.8318 1.12902 35.9478 2.28476 36.3274 3.75449C36.9613 6.16853 36.9988 10.9419 37 11.8724L37 11.9732C36.9999 11.9988 36.9999 12.0163 36.9998 12.0251L36.9998 12.0465C36.9992 12.3629 36.9794 17.6738 36.3209 20.2756C35.9414 21.742 34.8286 22.9011 33.4134 23.2952C30.934 23.9719 21.3139 23.9989 20.5482 24L20.4515 24C19.6877 23.9989 10.0903 23.9706 7.58621 23.2652C6.17424 22.871 5.05817 21.7153 4.67864 20.2456C4.04071 17.7525 4.00244 12.6621 4.00014 12.0602L4.00001 12.0166C4.00001 12.0133 4 12.0105 4 12.0083V11.9951C4 11.9929 4.00001 11.9902 4.00001 11.9869L4.00014 11.9434C4.00244 11.3443 4.04071 6.27582 4.67864 3.75449C5.06138 2.2881 6.20318 1.10229 7.58942 0.704798C10.0172 0.0422825 19.2912 0.00253165 20.3953 0.000146599L20.4756 1.33913e-05C20.4816 7.04803e-06 20.4867 2.81921e-06 20.4908 0L20.5153 2.40502e-07ZM17.2127 6.86097V17.1391L25.8035 12.0017L17.2127 6.86097Z" fill="url(#paint0_linear_229_368)"/>
<path d="M51.41 10.14C50.1687 10.14 49.2307 9.846 48.596 9.258C47.9707 8.67 47.6253 7.844 47.56 6.78H49.352C49.3987 7.396 49.5853 7.85333 49.912 8.152C50.2387 8.45067 50.738 8.6 51.41 8.6C52.054 8.6 52.516 8.48333 52.796 8.25C53.076 8.01667 53.216 7.704 53.216 7.312C53.216 6.948 53.0807 6.67267 52.81 6.486C52.5393 6.29933 52.1987 6.14533 51.788 6.024C51.3773 5.89333 50.934 5.772 50.458 5.66C49.982 5.53867 49.5387 5.37067 49.128 5.156C48.7173 4.94133 48.3767 4.652 48.106 4.288C47.8353 3.924 47.7 3.42933 47.7 2.804C47.7 2.412 47.7747 2.05267 47.924 1.726C48.0733 1.39 48.2927 1.10067 48.582 0.857999C48.8807 0.606 49.2447 0.41 49.674 0.269999C50.1127 0.129999 50.6213 0.0599995 51.2 0.0599995C52.404 0.0599995 53.3047 0.339999 53.902 0.899999C54.4993 1.46 54.8353 2.25333 54.91 3.28H53.118C53.0713 2.72 52.8987 2.3 52.6 2.02C52.3013 1.74 51.8347 1.6 51.2 1.6C50.584 1.6 50.1407 1.71667 49.87 1.95C49.5993 2.174 49.464 2.46333 49.464 2.818C49.464 3.20067 49.5993 3.49 49.87 3.686C50.1407 3.87267 50.4813 4.02667 50.892 4.148C51.3027 4.26933 51.746 4.386 52.222 4.498C52.698 4.60067 53.1413 4.75467 53.552 4.96C53.9627 5.16533 54.3033 5.45467 54.574 5.828C54.8447 6.192 54.98 6.69133 54.98 7.326C54.98 7.73667 54.9053 8.11467 54.756 8.46C54.616 8.80533 54.3967 9.104 54.098 9.356C53.7993 9.59867 53.426 9.79 52.978 9.93C52.53 10.07 52.0073 10.14 51.41 10.14ZM56.0349 0.199999H57.7149V10H56.0349V0.199999ZM59.1784 0.199999H60.8584V8.46H65.1984V10H59.1784V0.199999ZM63.5889 0.199999H65.3809L68.2369 8.04H68.2509L70.8689 0.199999H72.5489L69.1889 10H67.2289L63.5889 0.199999ZM73.1111 0.199999H79.4111V1.74H74.7911V4.19H78.5711V5.73H74.7911V8.46H79.4111V10H73.1111V0.199999ZM80.3851 0.199999H83.8151C85.0844 0.199999 86.0177 0.475333 86.6151 1.026C87.2217 1.57667 87.5251 2.32333 87.5251 3.266C87.5251 3.91 87.3757 4.47 87.0771 4.946C86.7784 5.41267 86.3257 5.76733 85.7191 6.01L87.8051 10H85.9291L84.1371 6.318C84.0344 6.32733 83.9691 6.332 83.9411 6.332C83.9131 6.332 83.8711 6.332 83.8151 6.332H82.0651V10H80.3851V0.199999ZM83.7451 4.792C84.4637 4.792 84.9771 4.65667 85.2851 4.386C85.6024 4.11533 85.7611 3.742 85.7611 3.266C85.7611 2.818 85.5977 2.454 85.2711 2.174C84.9444 1.88467 84.4357 1.74 83.7451 1.74H82.0651V4.792H83.7451ZM94.3167 6.71L90.6067 0.199999H92.5107L95.1987 4.974L97.6067 0.199999H99.4267L95.9967 6.71V10H94.3167V6.71ZM102.506 1.74H99.4956V0.199999H107.196V1.74H104.186V10H102.506V1.74ZM47.98 14.2H51.34C52.6 14.2 53.496 14.4333 54.028 14.9C54.5693 15.3667 54.84 16.02 54.84 16.86C54.84 17.7653 54.4247 18.442 53.594 18.89V18.918C54.6113 19.3473 55.12 20.0987 55.12 21.172C55.12 22.096 54.8493 22.8007 54.308 23.286C53.776 23.762 52.88 24 51.62 24H47.98V14.2ZM49.66 15.74V18.26H51.27C51.9513 18.26 52.4227 18.1527 52.684 17.938C52.9453 17.7233 53.076 17.4107 53.076 17C53.076 16.5893 52.9453 16.2767 52.684 16.062C52.4227 15.8473 51.9513 15.74 51.27 15.74H49.66ZM49.66 19.66V22.46H51.55C52.2313 22.46 52.7027 22.348 52.964 22.124C53.2253 21.8907 53.356 21.536 53.356 21.06C53.356 20.584 53.2253 20.234 52.964 20.01C52.7027 19.7767 52.2313 19.66 51.55 19.66H49.66ZM59.9516 24.14C58.729 24.14 57.7676 23.79 57.0676 23.09C56.377 22.3807 56.0316 21.3773 56.0316 20.08V14.2H57.7116V20.01C57.7116 20.878 57.9123 21.5267 58.3136 21.956C58.715 22.3853 59.261 22.6 59.9516 22.6C60.6516 22.6 61.1976 22.39 61.5896 21.97C61.991 21.5407 62.1916 20.8873 62.1916 20.01V14.2H63.8716V20.08C63.8716 20.7147 63.7783 21.284 63.5916 21.788C63.4143 22.292 63.153 22.7213 62.8076 23.076C62.4716 23.4213 62.061 23.6873 61.5756 23.874C61.0903 24.0513 60.549 24.14 59.9516 24.14ZM67.4477 15.74H64.4377V14.2H72.1377V15.74H69.1277V24H67.4477V15.74ZM75.4326 15.74H72.4226V14.2H80.1226V15.74H77.1126V24H75.4326V15.74ZM84.3198 24.14C83.6572 24.14 83.0598 24.0373 82.5278 23.832C81.9958 23.6173 81.5385 23.3093 81.1558 22.908C80.7825 22.4973 80.4932 21.9933 80.2878 21.396C80.0825 20.7893 79.9798 20.0987 79.9798 19.324V18.736C79.9798 17.9987 80.0825 17.3407 80.2878 16.762C80.4932 16.1833 80.7825 15.6933 81.1558 15.292C81.5385 14.8907 81.9958 14.5873 82.5278 14.382C83.0692 14.1673 83.6665 14.06 84.3198 14.06C84.9732 14.06 85.5658 14.1673 86.0978 14.382C86.6392 14.5873 87.0965 14.8907 87.4698 15.292C87.8525 15.684 88.1465 16.174 88.3518 16.762C88.5572 17.3407 88.6598 17.9987 88.6598 18.736V19.324C88.6598 20.0987 88.5572 20.7847 88.3518 21.382C88.1465 21.9793 87.8525 22.4833 87.4698 22.894C87.0965 23.3047 86.6392 23.6173 86.0978 23.832C85.5658 24.0373 84.9732 24.14 84.3198 24.14ZM84.3198 22.6C85.0945 22.6 85.7152 22.3387 86.1818 21.816C86.6578 21.2933 86.8958 20.4627 86.8958 19.324V18.736C86.8958 17.6907 86.6578 16.9067 86.1818 16.384C85.7058 15.8613 85.0852 15.6 84.3198 15.6C83.5358 15.6 82.9105 15.8567 82.4438 16.37C81.9772 16.8833 81.7438 17.672 81.7438 18.736V19.324C81.7438 20.444 81.9772 21.27 82.4438 21.802C82.9198 22.334 83.5452 22.6 84.3198 22.6ZM89.7093 14.2H92.0893L95.9813 21.62H96.0093V14.2H97.6893V24H95.4493L91.4173 16.3H91.3893V24H89.7093V14.2Z" fill="white"/>
</g>
<defs>
<filter id="filter0_d_229_368" x="0" y="0" width="155" height="32.14" filterUnits="userSpaceOnUse" color-interpolation-filters="sRGB">
<feFlood flood-opacity="0" result="BackgroundImageFix"/>
<feColorMatrix in="SourceAlpha" type="matrix" values="0 0 0 0 0 0 0 0 0 0 0 0 0 0 0 0 0 0 127 0" result="hardAlpha"/>
<feOffset dy="4"/>
<feGaussianBlur stdDeviation="2"/>
<feComposite in2="hardAlpha" operator="out"/>
<feColorMatrix type="matrix" values="0 0 0 0 0 0 0 0 0 0 0 0 0 0 0 0 0 0 0.25 0"/>
<feBlend mode="normal" in2="BackgroundImageFix" result="effect1_dropShadow_229_368"/>
<feBlend mode="normal" in="SourceGraphic" in2="effect1_dropShadow_229_368" result="shape"/>
</filter>
<linearGradient id="paint0_linear_229_368" x1="7.15673" y1="25.7914" x2="33.4659" y2="-5.37908" gradientUnits="userSpaceOnUse">
<stop stop-color="#A3A3A3"/>
<stop offset="0.543337" stop-color="#F0F0F0"/>
<stop offset="0.701074" stop-color="#F4F4F4"/>
<stop offset="1" stop-color="#E2E2E2"/>
</linearGradient>
</defs>
</svg>
